<?xml version="1.0" encoding="UTF-8" standalone="no"?>
<!DOCTYPE svg PUBLIC "-//W3C//DTD SVG 1.1//EN"
 "http://www.w3.org/Graphics/SVG/1.1/DTD/svg11.dtd">
<!-- Generated by graphviz version 2.43.0 (0)
 -->
<!-- Title: snakemake_dag Pages: 1 -->
<svg width="1434pt" height="260pt"
 viewBox="0.00 0.00 1433.50 260.00" xmlns="http://www.w3.org/2000/svg" xmlns:xlink="http://www.w3.org/1999/xlink">
<g id="graph0" class="graph" transform="scale(1 1) rotate(0) translate(4 256)">
<title>snakemake_dag</title>
<polygon fill="white" stroke="transparent" points="-4,4 -4,-256 1429.5,-256 1429.5,4 -4,4"/>
<!-- 0 -->
<g id="node1" class="node">
<title>0</title>
<path fill="none" stroke="#d85656" stroke-width="2" d="M754,-36C754,-36 724,-36 724,-36 718,-36 712,-30 712,-24 712,-24 712,-12 712,-12 712,-6 718,0 724,0 724,0 754,0 754,0 760,0 766,-6 766,-12 766,-12 766,-24 766,-24 766,-30 760,-36 754,-36"/>
<text text-anchor="middle" x="739" y="-15.5" font-family="sans" font-size="10.00">all</text>
</g>
<!-- 1 -->
<g id="node2" class="node">
<title>1</title>
<path fill="none" stroke="#d8a456" stroke-width="2" d="M255.5,-108C255.5,-108 170.5,-108 170.5,-108 164.5,-108 158.5,-102 158.5,-96 158.5,-96 158.5,-84 158.5,-84 158.5,-78 164.5,-72 170.5,-72 170.5,-72 255.5,-72 255.5,-72 261.5,-72 267.5,-78 267.5,-84 267.5,-84 267.5,-96 267.5,-96 267.5,-102 261.5,-108 255.5,-108"/>
<text text-anchor="middle" x="213" y="-87.5" font-family="sans" font-size="10.00">bar_graph_by_char</text>
</g>
<!-- 1&#45;&gt;0 -->
<g id="edge1" class="edge">
<title>1&#45;&gt;0</title>
<path fill="none" stroke="grey" stroke-width="2" d="M267.52,-73.75C270.38,-73.12 273.22,-72.53 276,-72 432.54,-42.09 622.31,-26.83 701.49,-21.38"/>
<polygon fill="grey" stroke="grey" stroke-width="2" points="702.17,-24.85 711.91,-20.68 701.7,-17.86 702.17,-24.85"/>
</g>
<!-- 2 -->
<g id="node3" class="node">
<title>2</title>
<path fill="none" stroke="#56a2d8" stroke-width="2" stroke-dasharray="5,2" d="M242.5,-252C242.5,-252 183.5,-252 183.5,-252 177.5,-252 171.5,-246 171.5,-240 171.5,-240 171.5,-228 171.5,-228 171.5,-222 177.5,-216 183.5,-216 183.5,-216 242.5,-216 242.5,-216 248.5,-216 254.5,-222 254.5,-228 254.5,-228 254.5,-240 254.5,-240 254.5,-246 248.5,-252 242.5,-252"/>
<text text-anchor="middle" x="213" y="-237" font-family="sans" font-size="10.00">text_to_chars</text>
<text text-anchor="middle" x="213" y="-226" font-family="sans" font-size="10.00">text: ipsum</text>
</g>
<!-- 2&#45;&gt;1 -->
<g id="edge13" class="edge">
<title>2&#45;&gt;1</title>
<path fill="none" stroke="grey" stroke-width="2" d="M213,-215.87C213,-191.67 213,-147.21 213,-118.39"/>
<polygon fill="grey" stroke="grey" stroke-width="2" points="216.5,-118.19 213,-108.19 209.5,-118.19 216.5,-118.19"/>
</g>
<!-- 11 -->
<g id="node12" class="node">
<title>11</title>
<path fill="none" stroke="#c6d856" stroke-width="2" d="M128,-108C128,-108 12,-108 12,-108 6,-108 0,-102 0,-96 0,-96 0,-84 0,-84 0,-78 6,-72 12,-72 12,-72 128,-72 128,-72 134,-72 140,-78 140,-84 140,-84 140,-96 140,-96 140,-102 134,-108 128,-108"/>
<text text-anchor="middle" x="70" y="-87.5" font-family="sans" font-size="10.00">bar_graph_by_magnitude</text>
</g>
<!-- 2&#45;&gt;11 -->
<g id="edge18" class="edge">
<title>2&#45;&gt;11</title>
<path fill="none" stroke="grey" stroke-width="2" d="M195.75,-215.87C170.52,-190.82 123.43,-144.05 94.58,-115.41"/>
<polygon fill="grey" stroke="grey" stroke-width="2" points="96.87,-112.75 87.31,-108.19 91.94,-117.72 96.87,-112.75"/>
</g>
<!-- 17 -->
<g id="node18" class="node">
<title>17</title>
<path fill="none" stroke="#78d856" stroke-width="2" stroke-dasharray="5,2" d="M842.5,-180C842.5,-180 719.5,-180 719.5,-180 713.5,-180 707.5,-174 707.5,-168 707.5,-168 707.5,-156 707.5,-156 707.5,-150 713.5,-144 719.5,-144 719.5,-144 842.5,-144 842.5,-144 848.5,-144 854.5,-150 854.5,-156 854.5,-156 854.5,-168 854.5,-168 854.5,-174 848.5,-180 842.5,-180"/>
<text text-anchor="middle" x="781" y="-159.5" font-family="sans" font-size="10.00">combine_char_data_to_file</text>
</g>
<!-- 2&#45;&gt;17 -->
<g id="edge24" class="edge">
<title>2&#45;&gt;17</title>
<path fill="none" stroke="grey" stroke-width="2" d="M254.63,-228.37C333.7,-219.5 511.01,-199.3 660,-180 672.12,-178.43 684.91,-176.71 697.46,-174.98"/>
<polygon fill="grey" stroke="grey" stroke-width="2" points="698.02,-178.43 707.45,-173.59 697.06,-171.5 698.02,-178.43"/>
</g>
<!-- 3 -->
<g id="node4" class="node">
<title>3</title>
<path fill="none" stroke="#d8a456" stroke-width="2" d="M382.5,-108C382.5,-108 297.5,-108 297.5,-108 291.5,-108 285.5,-102 285.5,-96 285.5,-96 285.5,-84 285.5,-84 285.5,-78 291.5,-72 297.5,-72 297.5,-72 382.5,-72 382.5,-72 388.5,-72 394.5,-78 394.5,-84 394.5,-84 394.5,-96 394.5,-96 394.5,-102 388.5,-108 382.5,-108"/>
<text text-anchor="middle" x="340" y="-87.5" font-family="sans" font-size="10.00">bar_graph_by_char</text>
</g>
<!-- 3&#45;&gt;0 -->
<g id="edge2" class="edge">
<title>3&#45;&gt;0</title>
<path fill="none" stroke="grey" stroke-width="2" d="M394.72,-74.07C397.85,-73.34 400.96,-72.64 404,-72 511.29,-49.33 639.76,-31.59 701.82,-23.61"/>
<polygon fill="grey" stroke="grey" stroke-width="2" points="702.43,-27.06 711.91,-22.33 701.54,-20.12 702.43,-27.06"/>
</g>
<!-- 4 -->
<g id="node5" class="node">
<title>4</title>
<path fill="none" stroke="#56a2d8" stroke-width="2" stroke-dasharray="5,2" d="M523,-252C523,-252 443,-252 443,-252 437,-252 431,-246 431,-240 431,-240 431,-228 431,-228 431,-222 437,-216 443,-216 443,-216 523,-216 523,-216 529,-216 535,-222 535,-228 535,-228 535,-240 535,-240 535,-246 529,-252 523,-252"/>
<text text-anchor="middle" x="483" y="-237" font-family="sans" font-size="10.00">text_to_chars</text>
<text text-anchor="middle" x="483" y="-226" font-family="sans" font-size="10.00">text: brassSpoons</text>
</g>
<!-- 4&#45;&gt;3 -->
<g id="edge14" class="edge">
<title>4&#45;&gt;3</title>
<path fill="none" stroke="grey" stroke-width="2" d="M465.75,-215.87C440.52,-190.82 393.43,-144.05 364.58,-115.41"/>
<polygon fill="grey" stroke="grey" stroke-width="2" points="366.87,-112.75 357.31,-108.19 361.94,-117.72 366.87,-112.75"/>
</g>
<!-- 12 -->
<g id="node13" class="node">
<title>12</title>
<path fill="none" stroke="#c6d856" stroke-width="2" d="M541,-108C541,-108 425,-108 425,-108 419,-108 413,-102 413,-96 413,-96 413,-84 413,-84 413,-78 419,-72 425,-72 425,-72 541,-72 541,-72 547,-72 553,-78 553,-84 553,-84 553,-96 553,-96 553,-102 547,-108 541,-108"/>
<text text-anchor="middle" x="483" y="-87.5" font-family="sans" font-size="10.00">bar_graph_by_magnitude</text>
</g>
<!-- 4&#45;&gt;12 -->
<g id="edge19" class="edge">
<title>4&#45;&gt;12</title>
<path fill="none" stroke="grey" stroke-width="2" d="M483,-215.87C483,-191.67 483,-147.21 483,-118.39"/>
<polygon fill="grey" stroke="grey" stroke-width="2" points="486.5,-118.19 483,-108.19 479.5,-118.19 486.5,-118.19"/>
</g>
<!-- 4&#45;&gt;17 -->
<g id="edge25" class="edge">
<title>4&#45;&gt;17</title>
<path fill="none" stroke="grey" stroke-width="2" d="M535.25,-220.73C580.33,-210.14 646.24,-194.66 698.45,-182.39"/>
<polygon fill="grey" stroke="grey" stroke-width="2" points="699.43,-185.75 708.37,-180.06 697.83,-178.94 699.43,-185.75"/>
</g>
<!-- 5 -->
<g id="node6" class="node">
<title>5</title>
<path fill="none" stroke="#d8a456" stroke-width="2" stroke-dasharray="5,2" d="M706.5,-108C706.5,-108 621.5,-108 621.5,-108 615.5,-108 609.5,-102 609.5,-96 609.5,-96 609.5,-84 609.5,-84 609.5,-78 615.5,-72 621.5,-72 621.5,-72 706.5,-72 706.5,-72 712.5,-72 718.5,-78 718.5,-84 718.5,-84 718.5,-96 718.5,-96 718.5,-102 712.5,-108 706.5,-108"/>
<text text-anchor="middle" x="664" y="-87.5" font-family="sans" font-size="10.00">bar_graph_by_char</text>
</g>
<!-- 5&#45;&gt;0 -->
<g id="edge3" class="edge">
<title>5&#45;&gt;0</title>
<path fill="none" stroke="grey" stroke-width="2" d="M682.54,-71.7C691.8,-63.05 703.16,-52.45 713.26,-43.03"/>
<polygon fill="grey" stroke="grey" stroke-width="2" points="715.75,-45.49 720.67,-36.1 710.98,-40.37 715.75,-45.49"/>
</g>
<!-- 6 -->
<g id="node7" class="node">
<title>6</title>
<path fill="none" stroke="#56a2d8" stroke-width="2" stroke-dasharray="5,2" d="M720.5,-252C720.5,-252 637.5,-252 637.5,-252 631.5,-252 625.5,-246 625.5,-240 625.5,-240 625.5,-228 625.5,-228 625.5,-222 631.5,-216 637.5,-216 637.5,-216 720.5,-216 720.5,-216 726.5,-216 732.5,-222 732.5,-228 732.5,-228 732.5,-240 732.5,-240 732.5,-246 726.5,-252 720.5,-252"/>
<text text-anchor="middle" x="679" y="-237" font-family="sans" font-size="10.00">text_to_chars</text>
<text text-anchor="middle" x="679" y="-226" font-family="sans" font-size="10.00">text: lonePaperclip</text>
</g>
<!-- 6&#45;&gt;5 -->
<g id="edge15" class="edge">
<title>6&#45;&gt;5</title>
<path fill="none" stroke="grey" stroke-width="2" d="M677.19,-215.87C674.63,-191.67 669.94,-147.21 666.89,-118.39"/>
<polygon fill="grey" stroke="grey" stroke-width="2" points="670.35,-117.77 665.82,-108.19 663.39,-118.5 670.35,-117.77"/>
</g>
<!-- 13 -->
<g id="node14" class="node">
<title>13</title>
<path fill="none" stroke="#c6d856" stroke-width="2" stroke-dasharray="5,2" d="M639,-180C639,-180 523,-180 523,-180 517,-180 511,-174 511,-168 511,-168 511,-156 511,-156 511,-150 517,-144 523,-144 523,-144 639,-144 639,-144 645,-144 651,-150 651,-156 651,-156 651,-168 651,-168 651,-174 645,-180 639,-180"/>
<text text-anchor="middle" x="581" y="-159.5" font-family="sans" font-size="10.00">bar_graph_by_magnitude</text>
</g>
<!-- 6&#45;&gt;13 -->
<g id="edge20" class="edge">
<title>6&#45;&gt;13</title>
<path fill="none" stroke="grey" stroke-width="2" d="M655.03,-215.88C642.45,-206.89 626.87,-195.76 613.25,-186.03"/>
<polygon fill="grey" stroke="grey" stroke-width="2" points="615.24,-183.15 605.07,-180.19 611.17,-188.85 615.24,-183.15"/>
</g>
<!-- 6&#45;&gt;17 -->
<g id="edge26" class="edge">
<title>6&#45;&gt;17</title>
<path fill="none" stroke="grey" stroke-width="2" d="M703.95,-215.88C717.04,-206.89 733.26,-195.76 747.44,-186.03"/>
<polygon fill="grey" stroke="grey" stroke-width="2" points="749.69,-188.73 755.95,-180.19 745.73,-182.96 749.69,-188.73"/>
</g>
<!-- 7 -->
<g id="node8" class="node">
<title>7</title>
<path fill="none" stroke="#d8a456" stroke-width="2" stroke-dasharray="5,2" d="M969.5,-180C969.5,-180 884.5,-180 884.5,-180 878.5,-180 872.5,-174 872.5,-168 872.5,-168 872.5,-156 872.5,-156 872.5,-150 878.5,-144 884.5,-144 884.5,-144 969.5,-144 969.5,-144 975.5,-144 981.5,-150 981.5,-156 981.5,-156 981.5,-168 981.5,-168 981.5,-174 975.5,-180 969.5,-180"/>
<text text-anchor="middle" x="927" y="-159.5" font-family="sans" font-size="10.00">bar_graph_by_char</text>
</g>
<!-- 7&#45;&gt;0 -->
<g id="edge4" class="edge">
<title>7&#45;&gt;0</title>
<path fill="none" stroke="grey" stroke-width="2" d="M977.99,-143.92C1005.43,-133.59 1035.22,-120.11 1043,-108 1051.65,-94.54 1053.3,-84.25 1043,-72 1009.32,-31.94 849.96,-22.16 776.39,-19.77"/>
<polygon fill="grey" stroke="grey" stroke-width="2" points="776.28,-16.26 766.18,-19.47 776.07,-23.26 776.28,-16.26"/>
</g>
<!-- 8 -->
<g id="node9" class="node">
<title>8</title>
<path fill="none" stroke="#56a2d8" stroke-width="2" stroke-dasharray="5,2" d="M964,-252C964,-252 890,-252 890,-252 884,-252 878,-246 878,-240 878,-240 878,-228 878,-228 878,-222 884,-216 890,-216 890,-216 964,-216 964,-216 970,-216 976,-222 976,-228 976,-228 976,-240 976,-240 976,-246 970,-252 964,-252"/>
<text text-anchor="middle" x="927" y="-237" font-family="sans" font-size="10.00">text_to_chars</text>
<text text-anchor="middle" x="927" y="-226" font-family="sans" font-size="10.00">text: amberGlow</text>
</g>
<!-- 8&#45;&gt;7 -->
<g id="edge16" class="edge">
<title>8&#45;&gt;7</title>
<path fill="none" stroke="grey" stroke-width="2" d="M927,-215.7C927,-207.98 927,-198.71 927,-190.11"/>
<polygon fill="grey" stroke="grey" stroke-width="2" points="930.5,-190.1 927,-180.1 923.5,-190.1 930.5,-190.1"/>
</g>
<!-- 14 -->
<g id="node15" class="node">
<title>14</title>
<path fill="none" stroke="#c6d856" stroke-width="2" stroke-dasharray="5,2" d="M1128,-180C1128,-180 1012,-180 1012,-180 1006,-180 1000,-174 1000,-168 1000,-168 1000,-156 1000,-156 1000,-150 1006,-144 1012,-144 1012,-144 1128,-144 1128,-144 1134,-144 1140,-150 1140,-156 1140,-156 1140,-168 1140,-168 1140,-174 1134,-180 1128,-180"/>
<text text-anchor="middle" x="1070" y="-159.5" font-family="sans" font-size="10.00">bar_graph_by_magnitude</text>
</g>
<!-- 8&#45;&gt;14 -->
<g id="edge21" class="edge">
<title>8&#45;&gt;14</title>
<path fill="none" stroke="grey" stroke-width="2" d="M961.98,-215.88C981.2,-206.47 1005.23,-194.71 1025.74,-184.67"/>
<polygon fill="grey" stroke="grey" stroke-width="2" points="1027.44,-187.73 1034.88,-180.19 1024.36,-181.44 1027.44,-187.73"/>
</g>
<!-- 8&#45;&gt;17 -->
<g id="edge27" class="edge">
<title>8&#45;&gt;17</title>
<path fill="none" stroke="grey" stroke-width="2" d="M891.28,-215.88C871.5,-206.39 846.73,-194.51 825.67,-184.42"/>
<polygon fill="grey" stroke="grey" stroke-width="2" points="827.13,-181.24 816.6,-180.07 824.1,-187.55 827.13,-181.24"/>
</g>
<!-- 9 -->
<g id="node10" class="node">
<title>9</title>
<path fill="none" stroke="#d8a456" stroke-width="2" stroke-dasharray="5,2" d="M1413.5,-180C1413.5,-180 1328.5,-180 1328.5,-180 1322.5,-180 1316.5,-174 1316.5,-168 1316.5,-168 1316.5,-156 1316.5,-156 1316.5,-150 1322.5,-144 1328.5,-144 1328.5,-144 1413.5,-144 1413.5,-144 1419.5,-144 1425.5,-150 1425.5,-156 1425.5,-156 1425.5,-168 1425.5,-168 1425.5,-174 1419.5,-180 1413.5,-180"/>
<text text-anchor="middle" x="1371" y="-159.5" font-family="sans" font-size="10.00">bar_graph_by_char</text>
</g>
<!-- 9&#45;&gt;0 -->
<g id="edge5" class="edge">
<title>9&#45;&gt;0</title>
<path fill="none" stroke="grey" stroke-width="2" d="M1333.5,-143.97C1287.3,-123.7 1205.95,-90.3 1133,-72 1004.37,-39.73 846.88,-26.05 776.31,-21.23"/>
<polygon fill="grey" stroke="grey" stroke-width="2" points="776.36,-17.72 766.15,-20.55 775.89,-24.71 776.36,-17.72"/>
</g>
<!-- 10 -->
<g id="node11" class="node">
<title>10</title>
<path fill="none" stroke="#56a2d8" stroke-width="2" stroke-dasharray="5,2" d="M1269.5,-252C1269.5,-252 1186.5,-252 1186.5,-252 1180.5,-252 1174.5,-246 1174.5,-240 1174.5,-240 1174.5,-228 1174.5,-228 1174.5,-222 1180.5,-216 1186.5,-216 1186.5,-216 1269.5,-216 1269.5,-216 1275.5,-216 1281.5,-222 1281.5,-228 1281.5,-228 1281.5,-240 1281.5,-240 1281.5,-246 1275.5,-252 1269.5,-252"/>
<text text-anchor="middle" x="1228" y="-237" font-family="sans" font-size="10.00">text_to_chars</text>
<text text-anchor="middle" x="1228" y="-226" font-family="sans" font-size="10.00">text: velvetRibbon</text>
</g>
<!-- 10&#45;&gt;9 -->
<g id="edge17" class="edge">
<title>10&#45;&gt;9</title>
<path fill="none" stroke="grey" stroke-width="2" d="M1262.98,-215.88C1282.2,-206.47 1306.23,-194.71 1326.74,-184.67"/>
<polygon fill="grey" stroke="grey" stroke-width="2" points="1328.44,-187.73 1335.88,-180.19 1325.36,-181.44 1328.44,-187.73"/>
</g>
<!-- 15 -->
<g id="node16" class="node">
<title>15</title>
<path fill="none" stroke="#c6d856" stroke-width="2" stroke-dasharray="5,2" d="M1286,-180C1286,-180 1170,-180 1170,-180 1164,-180 1158,-174 1158,-168 1158,-168 1158,-156 1158,-156 1158,-150 1164,-144 1170,-144 1170,-144 1286,-144 1286,-144 1292,-144 1298,-150 1298,-156 1298,-156 1298,-168 1298,-168 1298,-174 1292,-180 1286,-180"/>
<text text-anchor="middle" x="1228" y="-159.5" font-family="sans" font-size="10.00">bar_graph_by_magnitude</text>
</g>
<!-- 10&#45;&gt;15 -->
<g id="edge22" class="edge">
<title>10&#45;&gt;15</title>
<path fill="none" stroke="grey" stroke-width="2" d="M1228,-215.7C1228,-207.98 1228,-198.71 1228,-190.11"/>
<polygon fill="grey" stroke="grey" stroke-width="2" points="1231.5,-190.1 1228,-180.1 1224.5,-190.1 1231.5,-190.1"/>
</g>
<!-- 10&#45;&gt;17 -->
<g id="edge28" class="edge">
<title>10&#45;&gt;17</title>
<path fill="none" stroke="grey" stroke-width="2" d="M1174.34,-226.24C1105.05,-217.28 980.51,-200.4 864.81,-180.27"/>
<polygon fill="grey" stroke="grey" stroke-width="2" points="865.17,-176.78 854.72,-178.5 863.96,-183.67 865.17,-176.78"/>
</g>
<!-- 11&#45;&gt;0 -->
<g id="edge6" class="edge">
<title>11&#45;&gt;0</title>
<path fill="none" stroke="grey" stroke-width="2" d="M140.13,-73.44C143.12,-72.93 146.09,-72.44 149,-72 356.55,-40.47 608.25,-25.52 701.72,-20.76"/>
<polygon fill="grey" stroke="grey" stroke-width="2" points="701.99,-24.25 711.81,-20.26 701.64,-17.26 701.99,-24.25"/>
</g>
<!-- 12&#45;&gt;0 -->
<g id="edge7" class="edge">
<title>12&#45;&gt;0</title>
<path fill="none" stroke="grey" stroke-width="2" d="M545.3,-71.97C594.28,-58.57 660.87,-40.36 701.84,-29.16"/>
<polygon fill="grey" stroke="grey" stroke-width="2" points="702.96,-32.48 711.68,-26.47 701.11,-25.73 702.96,-32.48"/>
</g>
<!-- 13&#45;&gt;0 -->
<g id="edge8" class="edge">
<title>13&#45;&gt;0</title>
<path fill="none" stroke="grey" stroke-width="2" d="M580.07,-143.83C579.94,-124.19 582.73,-92.16 600,-72 625.59,-42.13 669.92,-29.04 701.64,-23.34"/>
<polygon fill="grey" stroke="grey" stroke-width="2" points="702.56,-26.74 711.87,-21.68 701.44,-19.83 702.56,-26.74"/>
</g>
<!-- 14&#45;&gt;0 -->
<g id="edge9" class="edge">
<title>14&#45;&gt;0</title>
<path fill="none" stroke="grey" stroke-width="2" d="M1073.81,-143.78C1077.14,-123.79 1078.97,-91.13 1061,-72 1022.79,-31.33 852.73,-21.87 776.36,-19.67"/>
<polygon fill="grey" stroke="grey" stroke-width="2" points="776.31,-16.17 766.22,-19.4 776.13,-23.16 776.31,-16.17"/>
</g>
<!-- 15&#45;&gt;0 -->
<g id="edge10" class="edge">
<title>15&#45;&gt;0</title>
<path fill="none" stroke="grey" stroke-width="2" d="M1206.34,-143.83C1179.18,-123.26 1130.42,-89.4 1083,-72 976.33,-32.86 840.77,-22.62 776.31,-19.95"/>
<polygon fill="grey" stroke="grey" stroke-width="2" points="776.35,-16.45 766.23,-19.57 776.09,-23.44 776.35,-16.45"/>
</g>
<!-- 16 -->
<g id="node17" class="node">
<title>16</title>
<path fill="none" stroke="#56d87b" stroke-width="2" d="M1022,-108C1022,-108 922,-108 922,-108 916,-108 910,-102 910,-96 910,-96 910,-84 910,-84 910,-78 916,-72 922,-72 922,-72 1022,-72 1022,-72 1028,-72 1034,-78 1034,-84 1034,-84 1034,-96 1034,-96 1034,-102 1028,-108 1022,-108"/>
<text text-anchor="middle" x="972" y="-87.5" font-family="sans" font-size="10.00">combined_graph_char</text>
</g>
<!-- 16&#45;&gt;0 -->
<g id="edge11" class="edge">
<title>16&#45;&gt;0</title>
<path fill="none" stroke="grey" stroke-width="2" d="M915.3,-71.97C872.08,-58.98 813.8,-41.47 776.3,-30.21"/>
<polygon fill="grey" stroke="grey" stroke-width="2" points="776.89,-26.73 766.31,-27.2 774.88,-33.43 776.89,-26.73"/>
</g>
<!-- 17&#45;&gt;16 -->
<g id="edge23" class="edge">
<title>17&#45;&gt;16</title>
<path fill="none" stroke="grey" stroke-width="2" d="M827.72,-143.88C854.3,-134.14 887.76,-121.87 915.77,-111.61"/>
<polygon fill="grey" stroke="grey" stroke-width="2" points="917.24,-114.8 925.43,-108.07 914.83,-108.22 917.24,-114.8"/>
</g>
<!-- 18 -->
<g id="node19" class="node">
<title>18</title>
<path fill="none" stroke="#56d8c9" stroke-width="2" d="M879.5,-108C879.5,-108 748.5,-108 748.5,-108 742.5,-108 736.5,-102 736.5,-96 736.5,-96 736.5,-84 736.5,-84 736.5,-78 742.5,-72 748.5,-72 748.5,-72 879.5,-72 879.5,-72 885.5,-72 891.5,-78 891.5,-84 891.5,-84 891.5,-96 891.5,-96 891.5,-102 885.5,-108 879.5,-108"/>
<text text-anchor="middle" x="814" y="-87.5" font-family="sans" font-size="10.00">combined_graph_magnitude</text>
</g>
<!-- 17&#45;&gt;18 -->
<g id="edge29" class="edge">
<title>17&#45;&gt;18</title>
<path fill="none" stroke="grey" stroke-width="2" d="M789.16,-143.7C792.91,-135.73 797.45,-126.1 801.62,-117.26"/>
<polygon fill="grey" stroke="grey" stroke-width="2" points="804.84,-118.64 805.94,-108.1 798.51,-115.66 804.84,-118.64"/>
</g>
<!-- 18&#45;&gt;0 -->
<g id="edge12" class="edge">
<title>18&#45;&gt;0</title>
<path fill="none" stroke="grey" stroke-width="2" d="M795.46,-71.7C786.2,-63.05 774.84,-52.45 764.74,-43.03"/>
<polygon fill="grey" stroke="grey" stroke-width="2" points="767.02,-40.37 757.33,-36.1 762.25,-45.49 767.02,-40.37"/>
</g>
</g>
</svg>
